<?xml version="1.0" standalone="no"?>
<!DOCTYPE svg PUBLIC "-//W3C//DTD SVG 20010904//EN"
 "http://www.w3.org/TR/2001/REC-SVG-20010904/DTD/svg10.dtd">
<svg version="1.0" xmlns="http://www.w3.org/2000/svg"
 width="600.000000pt" height="600.000000pt" viewBox="0 0 600.000000 600.000000"
 preserveAspectRatio="xMidYMid meet">
<metadata>
Created by potrace 1.11, written by Peter Selinger 2001-2013
</metadata>
<g transform="translate(0.000000,600.000000) scale(0.100000,-0.100000)"
fill="#000000" stroke="none">
<path d="M0 3000 l0 -3000 3000 0 3000 0 0 3000 0 3000 -3000 0 -3000 0 0
-3000z m2825 2079 c22 -6 54 -22 71 -34 23 -18 47 -25 90 -27 70 -4 83 -25 38
-60 -84 -66 -147 -161 -178 -267 -20 -70 -20 -136 1 -223 12 -49 14 -77 7 -96
-9 -26 -12 -27 -92 -28 l-82 -2 0 52 c0 118 -60 249 -138 301 -21 13 -54 47
-74 74 -21 27 -51 57 -68 67 -40 24 -38 47 5 74 29 18 47 21 100 18 l65 -3 21
40 c37 70 73 101 134 116 44 10 56 10 100 -2z m558 -170 c51 -26 89 -63 112
-109 14 -27 25 -54 25 -59 0 -5 4 -21 10 -36 l10 -25 52 34 c64 42 128 60 183
52 45 -7 103 -38 111 -60 3 -8 -16 -41 -43 -74 -46 -59 -50 -61 -112 -72 -170
-30 -295 -161 -308 -323 -6 -84 -29 -137 -59 -137 -13 0 -45 -7 -71 -16 -44
-15 -52 -15 -119 2 -67 16 -74 20 -95 58 -12 23 -35 56 -51 74 -26 30 -28 39
-28 111 0 58 -5 91 -21 126 -82 185 33 413 236 466 38 10 139 3 168 -12z
m-1348 -159 c17 -11 37 -25 45 -31 12 -9 24 -6 54 15 74 50 153 46 215 -10 21
-19 44 -48 51 -64 7 -16 21 -32 31 -35 55 -18 119 -106 119 -165 0 -37 -17
-39 -84 -9 -174 77 -388 -70 -412 -282 -6 -55 -8 -59 -33 -59 -93 0 -143 153
-87 264 l24 47 -27 13 c-63 34 -101 97 -101 169 1 125 115 207 205 147z m2144
-125 c16 -8 40 -28 55 -45 36 -44 37 -132 1 -208 -14 -30 -25 -55 -25 -57 0
-1 21 -6 48 -9 79 -12 110 -26 146 -68 67 -78 68 -198 3 -295 -36 -53 -117
-113 -153 -113 -23 0 -24 3 -24 63 0 127 -54 229 -151 282 -49 27 -63 30 -150
30 l-96 1 -48 42 c-50 44 -95 62 -157 62 -33 0 -38 3 -38 24 0 28 46 71 100
94 31 13 88 13 164 0 15 -2 22 8 35 46 22 62 73 123 125 147 49 22 127 24 165
4z m-2470 -196 c57 -31 83 -78 91 -162 11 -112 48 -184 123 -238 22 -16 57
-34 79 -39 21 -6 38 -16 38 -21 0 -6 -16 -44 -36 -84 -25 -51 -37 -91 -41
-136 -6 -70 -9 -74 -67 -90 -57 -16 -118 -3 -175 36 -48 33 -49 33 -66 15 -27
-29 -99 -54 -140 -47 -95 15 -161 108 -153 215 7 94 37 139 132 197 15 9 14
14 -6 55 -18 35 -23 62 -23 122 0 69 3 81 30 120 53 76 140 99 214 57z m775
-109 c38 -25 53 -43 78 -98 17 -37 33 -69 34 -71 2 -2 21 8 42 22 103 67 245
59 333 -20 47 -42 51 -69 11 -78 -41 -8 -99 -60 -124 -108 -11 -23 -43 -63
-70 -89 -85 -82 -114 -179 -94 -305 l8 -53 -49 0 c-63 0 -109 13 -163 48 l-45
28 -43 -33 c-60 -45 -113 -58 -182 -44 -61 12 -114 50 -145 102 -15 25 -20 52
-20 105 0 103 26 139 161 220 16 10 15 13 -13 55 -68 100 -70 190 -6 277 37
50 87 71 169 72 61 0 76 -4 118 -30z m1205 -144 c33 -18 53 -46 71 -101 7 -22
16 -44 20 -48 4 -4 31 9 61 29 48 32 59 36 105 32 99 -8 157 -81 157 -198 1
-94 -38 -163 -105 -189 -16 -6 -35 -26 -45 -48 -26 -55 -74 -83 -140 -83 -57
0 -84 9 -120 43 l-23 20 -22 -21 c-26 -23 -69 -42 -99 -42 -28 0 -25 44 6 84
79 103 73 245 -15 356 -34 43 -36 56 -16 105 27 63 104 92 165 61z m-235 -213
c38 -28 56 -67 56 -118 0 -56 -25 -102 -69 -128 -35 -20 -38 -29 -15 -48 65
-54 54 -185 -20 -230 -42 -25 -121 -25 -163 1 -18 10 -42 38 -53 61 l-22 41
-26 -25 c-56 -53 -147 -72 -215 -43 -18 7 -47 29 -64 49 -70 79 -65 191 11
259 63 57 66 61 89 98 36 56 81 80 148 80 34 0 73 -7 94 -17 34 -16 36 -16 57
5 13 11 34 26 48 31 34 15 115 6 144 -16z m966 -286 c0 -12 -15 -101 -34 -197
-19 -96 -48 -247 -65 -335 -42 -222 -146 -761 -179 -930 l-27 -140 -75 -6
c-106 -9 -179 -40 -249 -105 -74 -68 -94 -71 -87 -11 3 23 8 80 11 127 6 87
29 358 65 767 11 127 20 274 20 327 0 57 4 96 10 96 6 0 10 19 11 43 0 23 3
60 7 82 6 33 12 40 37 46 63 13 112 42 161 95 47 50 59 57 124 74 79 20 174
56 205 77 32 22 65 17 65 -10z m-2672 -137 c58 -22 112 -25 176 -9 l43 11 55
-54 c30 -30 69 -60 85 -67 35 -14 31 8 60 -331 9 -113 20 -207 24 -210 3 -3 9
-68 12 -145 3 -77 17 -273 32 -435 14 -162 28 -331 32 -375 3 -44 9 -85 14
-90 4 -6 8 -60 9 -120 0 -61 6 -132 14 -160 13 -50 13 -50 87 -79 41 -15 115
-39 164 -51 l90 -23 3 993 2 993 71 7 c66 7 74 5 132 -24 78 -39 140 -48 227
-31 65 12 69 12 101 -10 17 -13 53 -28 80 -34 l47 -11 6 -685 c3 -377 6 -800
6 -941 l0 -256 63 14 c81 18 180 51 242 80 28 12 55 23 60 23 13 0 85 -105 85
-123 0 -7 -33 -28 -72 -46 -366 -170 -862 -196 -1263 -64 -187 61 -323 141
-427 251 l-64 68 -21 109 c-12 61 -62 317 -112 570 -49 253 -106 548 -126 655
-20 107 -52 273 -71 369 -43 220 -43 224 -1 238 50 16 78 15 135 -7z m2770
-1415 c106 -45 148 -158 102 -275 -15 -38 -17 -52 -7 -55 6 -2 30 -9 52 -15
99 -30 155 -100 155 -196 -1 -98 -59 -172 -153 -194 -51 -11 -81 -7 -140 17
l-38 16 -37 -36 c-53 -52 -114 -77 -190 -77 -75 0 -156 34 -197 82 -19 22 -39
33 -73 39 -93 18 -184 112 -198 207 -15 97 29 204 105 256 75 52 162 60 265
23 l64 -24 12 61 c18 93 45 133 115 169 39 21 115 21 163 2z"/>
</g>
</svg>
