<?xml version="1.0" standalone="no"?>
<!DOCTYPE svg PUBLIC "-//W3C//DTD SVG 20010904//EN"
 "http://www.w3.org/TR/2001/REC-SVG-20010904/DTD/svg10.dtd">
<svg version="1.0" xmlns="http://www.w3.org/2000/svg"
 width="640.000000pt" height="640.000000pt" viewBox="0 0 640.000000 640.000000"
 preserveAspectRatio="xMidYMid meet">
<metadata>
Created by potrace 1.11, written by Peter Selinger 2001-2013
</metadata>
<g transform="translate(0.000000,640.000000) scale(0.100000,-0.100000)"
fill="#000000" stroke="none">
<path d="M328 6390 c-163 -28 -291 -158 -318 -325 -13 -81 -14 -5648 0 -5728
27 -169 140 -287 307 -322 102 -22 5664 -22 5766 0 169 36 281 155 308 327 6
40 8 1118 7 2903 l-3 2840 -23 58 c-44 109 -120 185 -229 229 l-58 23 -2855 1
c-1570 1 -2876 -2 -2902 -6z m689 -284 c28 -24 28 -25 31 -159 5 -209 -6 -221
-218 -215 -130 3 -132 3 -156 31 -23 27 -24 35 -24 168 l0 141 29 29 29 29
141 0 c133 0 141 -1 168 -24z m765 -6 l29 -30 -3 -145 c-4 -197 3 -190 -199
-190 l-151 0 -24 28 c-23 27 -24 35 -24 168 l0 141 29 29 29 29 142 0 142 0
30 -30z m759 1 l29 -29 0 -141 c0 -133 -1 -141 -24 -168 l-24 -28 -151 0
c-202 0 -195 -7 -199 190 l-3 145 29 30 30 30 142 0 142 0 29 -29z m760 0 l29
-29 0 -141 c0 -133 -1 -141 -24 -168 -24 -28 -25 -28 -159 -31 -209 -5 -221 6
-215 218 3 130 3 132 31 156 27 23 35 24 168 24 l141 0 29 -29z m742 17 c43
-22 46 -37 47 -185 0 -136 -1 -143 -24 -170 -24 -28 -26 -28 -156 -31 -205 -5
-220 8 -220 198 0 117 13 169 47 189 25 15 278 14 306 -1z m766 -3 c16 -8 31
-22 35 -30 3 -9 6 -81 6 -159 0 -140 0 -143 -26 -167 -24 -22 -34 -24 -151
-27 -142 -4 -164 -1 -193 30 -18 20 -20 35 -20 170 0 145 1 150 25 173 23 24
29 25 160 25 100 0 144 -4 164 -15z m776 -10 c24 -23 25 -28 25 -174 l0 -149
-31 -26 c-30 -25 -35 -26 -164 -26 -129 0 -134 1 -164 26 l-31 26 0 149 c0
146 1 151 25 174 23 24 28 25 170 25 142 0 147 -1 170 -25z m-900 -750 c365
-78 658 -307 820 -639 140 -286 159 -604 54 -904 -165 -470 -610 -782 -1114
-782 -321 0 -606 118 -830 345 -165 166 -271 363 -321 595 -22 102 -25 341 -5
440 99 506 504 892 1006 959 92 13 302 5 390 -14z m-2555 -1141 c635 -109
1067 -711 965 -1344 -41 -251 -162 -480 -346 -655 -41 -38 -58 -53 -39 -31 22
25 28 35 15 28 -12 -6 -155 -11 -363 -13 l-342 -4 -1 -50 c-1 -94 -8 -31 -29
275 -11 168 -23 328 -26 356 l-5 52 -37 0 c-40 1 -87 16 -110 35 -8 6 -21 12
-30 13 -11 2 -122 -101 -284 -261 l-267 -264 61 -55 c34 -30 94 -74 134 -98
73 -42 95 -65 33 -33 -26 14 -60 17 -175 16 l-143 0 -62 67 c-164 179 -260
371 -305 607 -22 120 -15 365 14 475 56 212 150 383 290 531 175 186 435 323
677 358 100 14 276 12 375 -5z m3679 -856 l0 -423 -287 -237 -286 -238 -116 0
-115 0 -117 118 -117 117 -3 162 -3 162 64 21 c228 75 446 230 587 417 67 89
86 111 59 68 -59 -98 -211 -256 -315 -330 -62 -43 -89 -68 -48 -42 24 15 65
17 352 17 l325 0 4 -67 c2 -38 4 100 5 305 1 204 4 372 7 372 3 0 5 -190 4
-422z m-5151 -255 c2 56 5 67 20 67 14 0 17 -9 15 -57 -1 -40 2 -26 11 42 14
110 36 219 42 213 2 -3 -4 -40 -12 -84 -20 -97 -23 -341 -5 -434 31 -163 93
-322 175 -449 48 -75 54 -87 34 -75 -7 4 -2 -7 10 -24 13 -17 28 -35 35 -38 7
-4 5 1 -4 12 -51 61 -20 36 65 -53 113 -119 198 -184 327 -253 104 -55 115
-68 16 -19 -105 53 -222 136 -309 220 l-83 80 -167 -1 -168 -1 -2 108 c-2 59
-5 -166 -8 -502 -4 -412 -5 -201 -5 650 0 693 2 1096 5 895 3 -201 6 -335 8
-297z m2712 527 c6 -11 8 -20 6 -20 -3 0 -10 9 -16 20 -6 11 -8 20 -6 20 3 0
10 -9 16 -20z m-340 -20 c6 -11 8 -20 6 -20 -3 0 -10 9 -16 20 -6 11 -8 20 -6
20 3 0 10 -9 16 -20z m278 -17 c-49 -2 -127 -2 -175 0 -49 1 -9 3 87 3 96 0
136 -2 88 -3z m-2507 -80 c-12 -20 -14 -14 -5 12 4 9 9 14 11 11 3 -2 0 -13
-6 -23z m-30 -84 c-11 -30 -20 -49 -20 -43 -1 15 30 106 35 101 2 -2 -5 -28
-15 -58z m1046 -619 c21 -11 52 -23 70 -26 18 -3 33 -7 33 -8 0 0 9 -138 20
-306 11 -168 20 -318 20 -334 l0 -29 -97 6 c-113 7 -196 27 -305 72 -71 30
-180 97 -237 146 l-25 20 240 240 c131 131 240 239 241 239 2 0 20 -9 40 -20z
m-577 -697 c0 -7 -56 35 -71 54 -8 9 5 2 29 -17 23 -18 42 -35 42 -37z m1430
33 c0 -2 -8 -10 -17 -17 -16 -13 -17 -12 -4 4 13 16 21 21 21 13z m-1110 -16
c8 -5 11 -10 5 -10 -5 0 -17 5 -25 10 -8 5 -10 10 -5 10 6 0 17 -5 25 -10z
m-30 -232 c10 -6 7 -7 -10 -2 -14 3 -32 11 -40 16 -10 6 -7 7 10 2 14 -3 32
-11 40 -16z m115 -32 c28 -8 41 -14 30 -14 -21 0 -107 25 -90 27 6 0 33 -6 60
-13z m3635 -47 l45 -41 -46 36 -46 36 -109 0 -109 0 -125 -122 -125 -123 125
128 125 127 110 0 110 0 45 -41z m-3537 24 c-7 -2 -21 -2 -30 0 -10 3 -4 5 12
5 17 0 24 -2 18 -5z m75 -10 c-10 -2 -28 -2 -40 0 -13 2 -5 4 17 4 22 1 32 -1
23 -4z m275 0 c-13 -2 -33 -2 -45 0 -13 2 -3 4 22 4 25 0 35 -2 23 -4z m-115
-10 c-21 -2 -57 -2 -80 0 -24 2 -7 4 37 4 44 0 63 -2 43 -4z m3382 -68 c13
-14 21 -25 18 -25 -2 0 -15 11 -28 25 -13 14 -21 25 -18 25 2 0 15 -11 28 -25z
m60 -50 c13 -14 21 -25 18 -25 -2 0 -15 11 -28 25 -13 14 -21 25 -18 25 2 0
15 -11 28 -25z m60 -50 c13 -14 21 -25 18 -25 -2 0 -15 11 -28 25 -13 14 -21
25 -18 25 2 0 15 -11 28 -25z m65 -55 c10 -11 16 -20 13 -20 -3 0 -13 9 -23
20 -10 11 -16 20 -13 20 3 0 13 -9 23 -20z m60 -50 c10 -11 16 -20 13 -20 -3
0 -13 9 -23 20 -10 11 -16 20 -13 20 3 0 13 -9 23 -20z m60 -50 c10 -11 16
-20 13 -20 -3 0 -13 9 -23 20 -10 11 -16 20 -13 20 3 0 13 -9 23 -20z m60 -50
c10 -11 16 -20 13 -20 -3 0 -13 9 -23 20 -10 11 -16 20 -13 20 3 0 13 -9 23
-20z m83 -154 l-2 -81 -3 80 c-3 65 -8 84 -26 105 l-22 25 28 -24 c26 -23 27
-29 25 -105z m-4699 -651 c16 -8 31 -22 35 -30 8 -22 8 -288 0 -310 -14 -34
-58 -45 -189 -45 -192 0 -194 2 -195 202 l0 146 31 26 c29 25 35 26 160 26 95
0 138 -4 158 -15z m760 0 c40 -20 51 -61 51 -187 0 -124 -14 -172 -55 -188
-15 -6 -85 -10 -156 -10 l-131 0 -29 29 -29 29 0 142 0 142 29 29 29 29 132 0
c96 0 139 -4 159 -15z m783 -13 c22 -21 23 -30 23 -173 l0 -151 -28 -24 c-27
-23 -35 -24 -168 -24 l-141 0 -29 29 -29 29 0 142 0 142 30 30 30 29 145 -3
c135 -3 146 -5 167 -26z m760 0 c22 -21 23 -30 23 -173 l0 -151 -28 -24 c-27
-23 -35 -24 -168 -24 l-141 0 -29 29 -29 29 0 142 0 142 30 30 30 29 145 -3
c135 -3 146 -5 167 -26z m759 -1 l29 -29 0 -142 0 -142 -29 -29 -29 -29 -141
0 c-133 0 -141 1 -168 24 -28 24 -28 25 -31 163 -4 207 2 213 206 213 l134 0
29 -29z m760 0 l29 -29 0 -142 0 -142 -29 -29 -29 -29 -141 0 c-133 0 -141 1
-168 24 -28 24 -28 25 -31 159 -4 147 7 189 51 207 12 5 82 9 155 9 l134 1 29
-29z m760 0 l29 -29 0 -142 0 -142 -29 -29 -29 -29 -131 0 c-71 0 -141 4 -156
10 -41 16 -55 64 -55 188 0 190 11 201 208 202 l134 0 29 -29z"/>
<path d="M4360 5185 c-8 -2 -49 -9 -90 -15 -140 -23 -304 -95 -419 -185 -61
-47 -188 -172 -180 -178 6 -5 431 -379 516 -455 l73 -64 32 31 c31 31 81 51
126 51 l22 0 0 398 c0 296 3 401 12 410 9 9 2 12 -32 11 -25 -1 -52 -3 -60 -4z"/>
<path d="M4802 4648 l-273 -311 25 -26 c30 -31 56 -90 56 -126 l0 -25 415 0
415 0 0 49 c0 177 -64 381 -169 541 -35 54 -178 211 -190 209 -3 0 -129 -140
-279 -311z"/>
<path d="M4338 4261 c-28 -25 -33 -36 -33 -74 0 -52 21 -82 73 -104 66 -28
142 23 142 94 0 100 -108 150 -182 84z"/>
<path d="M3463 4125 c18 -213 100 -411 240 -575 103 -122 79 -130 278 98 95
108 208 236 251 283 l78 86 -21 19 c-27 24 -59 87 -59 114 0 50 -2 50 -401 50
l-372 0 6 -75z m557 -368 c0 -2 -10 -12 -22 -23 l-23 -19 19 23 c18 21 26 27
26 19z m-70 -80 c0 -2 -12 -14 -27 -28 l-28 -24 24 28 c23 25 31 32 31 24z
m-249 -44 c13 -16 12 -17 -3 -4 -17 13 -22 21 -14 21 2 0 10 -8 17 -17z m105
-41 c-44 -2 -83 1 -87 5 -4 4 31 6 79 3 l87 -5 -79 -3z"/>
<path d="M4564 4056 c-10 -26 -87 -66 -127 -66 l-37 0 0 -391 0 -392 113 6
c65 3 145 14 192 27 100 26 241 94 324 155 72 53 151 124 151 135 0 5 -125
118 -277 252 -368 323 -332 293 -339 274z m257 -263 c13 -16 12 -17 -3 -4 -17
13 -22 21 -14 21 2 0 10 -8 17 -17z m-213 -196 l157 -3 -162 -2 -163 -2 2 78
2 77 3 -72 4 -72 157 -4z m297 123 c10 -11 16 -20 13 -20 -3 0 -13 9 -23 20
-10 11 -16 20 -13 20 3 0 13 -9 23 -20z m85 -75 c13 -14 21 -25 18 -25 -2 0
-15 11 -28 25 -13 14 -21 25 -18 25 2 0 15 -11 28 -25z m86 -77 l29 -33 -32
29 c-31 28 -38 36 -30 36 2 0 16 -15 33 -32z m18 -59 c-31 -33 -132 -108 -174
-129 -38 -19 -23 -7 60 48 41 28 88 64 104 81 17 17 32 31 35 31 2 0 -8 -14
-25 -31z m-317 -156 c-2 -27 -3 -5 -3 47 0 52 1 74 3 48 2 -27 2 -69 0 -95z
m113 12 c0 -6 -88 -45 -98 -44 -4 0 16 11 43 24 58 28 55 27 55 20z"/>
<path d="M4850 3119 c-14 -6 -63 -21 -110 -34 -47 -13 -78 -24 -69 -24 20 -1
186 46 208 59 21 12 3 11 -29 -1z"/>
<path d="M4608 3053 c6 -2 18 -2 25 0 6 3 1 5 -13 5 -14 0 -19 -2 -12 -5z"/>
<path d="M4518 3043 c7 -3 16 -2 19 1 4 3 -2 6 -13 5 -11 0 -14 -3 -6 -6z"/>
<path d="M1844 3969 c8 -90 46 -701 46 -732 0 -19 8 -24 61 -34 35 -7 74 -22
95 -38 l34 -26 290 293 290 293 -55 52 c-172 163 -380 249 -633 260 l-134 6 6
-74z m63 -221 c-3 -7 -5 -2 -5 12 0 14 2 19 5 13 2 -7 2 -19 0 -25z m678 -8
c10 -11 16 -20 13 -20 -3 0 -13 9 -23 20 -10 11 -16 20 -13 20 3 0 13 -9 23
-20z m-668 -147 c-2 -16 -4 -5 -4 22 0 28 2 40 4 28 2 -13 2 -35 0 -50z m10
-165 c-2 -18 -4 -4 -4 32 0 36 2 50 4 33 2 -18 2 -48 0 -65z m296 -54 c-59
-63 -110 -121 -112 -127 -2 -7 -10 -20 -18 -29 -14 -15 -18 -15 -66 8 -29 13
-62 24 -74 24 -22 0 -23 4 -21 68 l2 67 3 -61 c4 -61 4 -62 36 -68 18 -3 49
-15 68 -25 38 -20 59 -14 59 18 0 12 216 241 228 241 2 0 -45 -52 -105 -116z"/>
<path d="M1192 3728 c2 -6 -20 -43 -49 -82 -73 -95 -138 -231 -169 -352 -20
-78 -26 -126 -27 -226 -1 -69 1 -129 4 -132 3 -3 178 5 389 19 210 14 386 25
390 25 4 0 10 24 12 54 3 31 13 66 24 81 10 16 24 34 29 42 8 12 -49 73 -268
287 -219 214 -275 274 -265 284 9 9 3 12 -31 12 -28 0 -41 -4 -39 -12z m38
-52 c0 -2 -8 -10 -17 -17 -16 -13 -17 -12 -4 4 13 16 21 21 21 13z m-30 -40
c0 -2 -8 -10 -17 -17 -16 -13 -17 -12 -4 4 13 16 21 21 21 13z m-46 -61 c-9
-14 -18 -25 -21 -25 -5 0 5 18 20 38 17 22 18 13 1 -13z m573 -438 c-9 -14
-21 -46 -28 -71 -8 -31 -17 -46 -28 -46 -9 0 -151 -9 -316 -20 -165 -11 -315
-20 -334 -20 l-34 0 6 123 c5 116 31 245 58 286 9 13 9 12 4 -4 -24 -74 -45
-178 -49 -244 -2 -50 -1 -59 3 -26 l6 50 355 3 355 2 -205 208 -205 207 214
-212 214 -211 -16 -25z m-629 338 c-18 -35 -34 -63 -36 -61 -4 5 56 126 63
126 3 0 -10 -29 -27 -65z"/>
<path d="M1707 3141 c-9 -16 -17 -33 -17 -38 0 -4 9 7 21 26 11 18 18 35 17
37 -2 2 -12 -10 -21 -25z"/>
<path d="M1883 3118 c-73 -19 -98 -120 -44 -177 25 -26 36 -31 76 -31 40 0 52
5 81 34 45 45 46 91 4 140 -33 37 -68 47 -117 34z m69 -56 c-1 -8 2 -11 7 -7
14 8 32 -30 24 -52 -19 -54 -76 -70 -113 -33 -43 43 -9 114 53 108 20 -2 31
-8 29 -16z"/>
<path d="M1908 3063 c6 -2 18 -2 25 0 6 3 1 5 -13 5 -14 0 -19 -2 -12 -5z"/>
<path d="M2500 3074 c-184 -12 -345 -23 -356 -23 -18 -1 -22 -9 -27 -46 -2
-26 -18 -66 -34 -93 l-30 -47 266 -270 c146 -148 269 -272 274 -274 27 -11
175 181 233 304 58 123 84 227 91 363 l6 112 -44 -1 c-24 -1 -195 -12 -379
-25z"/>
<path d="M5048 3124 c-38 -20 -36 -28 2 -9 17 9 30 18 30 20 0 7 -1 6 -32 -11z"/>
<path d="M1310 2356 c0 -2 8 -10 18 -17 15 -13 16 -12 3 4 -13 16 -21 21 -21
13z"/>
<path d="M1930 2302 l0 -52 -233 0 -234 0 -59 40 c-45 31 -51 33 -24 10 52
-46 195 -116 296 -145 50 -15 129 -28 182 -32 l93 -6 -7 114 c-7 122 -14 156
-14 71z"/>
</g>
</svg>
